# xmcd
#
# Track frame offsets:
# 150
# 16008
# 33127
# 53499
# 70729
# 91268
# 107923
# 123258
# 139149
# 150298
# 162986
# 182421
# 199658
# 213266
# 228065
# 243936
# 264830
# 283265
#
# Disc length: 4035 seconds
#
#
# Revision: 1
# Processed by: cddbd v1.5.2PL0 Copyright (c) Steve Scherf et al.
# Submitted via: FreeRIP 2.951 
#
DISCID=db0fc112
DTITLE=Vários - Dose Dupla Sertanejo
DYEAR=1900
DGENRE=Sertanejo
TTITLE0=Bruno e Marrone - Vai Dar Namoro
TTITLE1=Bruno e Marrone - Como Eu Chorei
TTITLE2=Racyne e Rafael - Muito Louco Por Você
TTITLE3=Racyne e Rafael - 17 De Setembro
TTITLE4=Daniel - Evidências
TTITLE5=Daniel - A Ferro e Fogo
TTITLE6=Leonardo - Brincadeira Tem Hora
TTITLE7=Leonardo - Ai Que Saudade
TTITLE8=Teodoro e Sampaio - Duas Metades
TTITLE9=Teodoro e Sampaio - Mulher Carente
TTITLE10=Zezé Di Camargo e Luciano - Pra Sempre
TTITLE11=Zezé Di Camargo e Luciano - Pra Mudar Minha Vida
TTITLE12=Gil e Gilberto - Deixe o Seu Coração Falar
TTITLE13=Gil e Gilberto - Caco De Vidro
TTITLE14=Guilherme e Santiago - Porque
TTITLE15=Guilherme e Santiago - O Nosso Amor
TTITLE16=Gian e Giovani - Na Batida Do Seu Coração
TTITLE17=Gian e Giovani - A Gente Não Consegue Se Amar
EXTD=
EXTT0=
EXTT1=
EXTT2=
EXTT3=
EXTT4=
EXTT5=
EXTT6=
EXTT7=
EXTT8=
EXTT9=
EXTT10=
EXTT11=
EXTT12=
EXTT13=
EXTT14=
EXTT15=
EXTT16=
EXTT17=
PLAYORDER=
